<svg xmlns="http://www.w3.org/2000/svg" xmlns:xlink="http://www.w3.org/1999/xlink" viewBox="0 0 581.69 365.31"><defs><style>.cls-1{isolation:isolate;}.cls-2{opacity:0.8;fill:url(#radial-gradient);}.cls-12,.cls-16,.cls-2,.cls-5,.cls-6{mix-blend-mode:multiply;}.cls-3{fill:#fff;}.cls-4{fill:url(#Áåçûìÿííûé_ãðàäèåíò_152);}.cls-16,.cls-5,.cls-6{fill:#d87290;}.cls-5{opacity:0.5;}.cls-6{opacity:0.31;}.cls-7{fill:url(#Áåçûìÿííûé_ãðàäèåíò_151);}.cls-8{fill:#f5af8f;}.cls-10,.cls-15,.cls-17,.cls-18,.cls-8{opacity:0.97;mix-blend-mode:soft-light;}.cls-9{fill:#e86c7c;}.cls-10{fill:#f5d3d2;}.cls-11{fill:#ab3d52;}.cls-12{fill:#f3bac0;opacity:0.6;}.cls-13{mix-blend-mode:screen;fill:url(#Áåçûìÿííûé_ãðàäèåíò_59);}.cls-14{fill:#b24d61;}.cls-15{fill:#f5ee8f;}.cls-16{opacity:0.3;}.cls-17{fill:#f5a995;}.cls-18{fill:#f5ffff;}</style><radialGradient id="radial-gradient" cx="813.59" cy="1017.5" r="929.29" gradientTransform="matrix(0.97, 0.25, -0.25, 0.97, -451.78, -1070.58)" gradientUnits="userSpaceOnUse"><stop offset="0.01" stop-color="#e7e5f0"/><stop offset="0.17" stop-color="#e3e0ec"/><stop offset="0.37" stop-color="#d7d1e2"/><stop offset="0.59" stop-color="#c3b8d0"/><stop offset="0.82" stop-color="#a896b7"/><stop offset="1" stop-color="#8e75a0"/></radialGradient><linearGradient id="Áåçûìÿííûé_ãðàäèåíò_152" x1="1003.77" y1="-346.48" x2="1003.77" y2="-727.07" gradientTransform="matrix(0.25, -0.97, 0.97, 0.25, 464.84, 1280.26)" gradientUnits="userSpaceOnUse"><stop offset="0" stop-color="#ff8777"/><stop offset="0.98" stop-color="#ffb880"/></linearGradient><linearGradient id="Áåçûìÿííûé_ãðàäèåíò_151" x1="1006.86" y1="-133.15" x2="1006.86" y2="-503" gradientTransform="matrix(0.25, -0.97, 0.97, 0.25, 464.84, 1280.26)" gradientUnits="userSpaceOnUse"><stop offset="0.02" stop-color="#ffb880"/><stop offset="1" stop-color="#ff8777"/></linearGradient><linearGradient id="Áåçûìÿííûé_ãðàäèåíò_59" x1="958.1" y1="-373.56" x2="1110.42" y2="-373.56" gradientTransform="matrix(0.25, -0.97, 0.97, 0.25, 464.84, 1280.26)" gradientUnits="userSpaceOnUse"><stop offset="0"/><stop offset="0.04" stop-color="#0c0300"/><stop offset="0.4" stop-color="#6b1f00"/><stop offset="0.69" stop-color="#b03300"/><stop offset="0.89" stop-color="#db3f00"/><stop offset="1" stop-color="#ec4400"/></linearGradient></defs><g class="cls-1"><g id="Layer_2" data-name="Layer 2"><g id="Layer_1-2" data-name="Layer 1"><path class="cls-2" d="M581.69,235.64c-38.32-4.09-97.35-6.65-112.8-15.34-22.06-12.4-26.58-63.22-36.14-80.17s-25.36-32.93-35.12-35-82,13.77-116.31,0S144.45,19.59,109.09,22.36,63.63,50.45,70.76,63s95.18,46.55,105,53.44,72.2,37,76.27,39.26,4.29,13-1,15.43-70.52-6.52-92.1-12.28-116.79-30.3-130.1-20.13S2.92,179.52,20.4,191.39s116,26.25,123,27.17,66.17,4.5,67.11,6-4.6,4.84-9.19,12.25-6.34,32,.73,43.17,29.29,16.62,28,21.65c-5.72,22.94,11.77,49.9,21.51,52.11s40.47-5.37,67.63-2.95,68.33,5,91.9-.79,24.46-25.62,33.68-30.49C453,315.22,553.67,358,581.69,365.31Z"/><path class="cls-3" d="M581.69,222.48c-6.94-.86-17.31-2.18-29.22-3.79l-.53-.07c-17.19-2.33-32.8-4.64-46.42-6.86l-.48-.13-.42,0-.38-.06c-13.18-2.17-24.31-4.23-33.13-6.15l-1.53-.33c-16.14-3.58-19.66-5.7-20.09-6-7.21-6-21.34-43.35-28.14-61.33-5.05-13.35-8-21.08-10.09-24.68l0-.07c-6.47-11.08-19.77-23.88-29-27.94-3.85-1.71-9.42-1.88-19.85-.62-5.91.69-12.71,1.78-19.29,2.83-9.25,1.48-18.82,3-24.76,3.24-10.42.42-30-1.08-41.66-2l-2.29-.18C219.59,64.69,199.83,54.44,192.89,50c-2.76-1.75-5.76-3.84-9.47-6.59-2.73-2-5.48-4.09-8.39-6.3C155.39,22.22,133.13,5.33,101.27.79,74-3.12,62.12,8.44,57.49,15.68c-7,10.93-6.05,24.06-1.6,30.9,1.63,2.48,4.74,5.63,16,11.76l.57,1L75,60c11.86,6.29,27.55,13.44,40.21,19.21,8.16,3.71,15.21,6.92,18,8.44,3,1.64,6.59,3.78,10.41,6,1.92,1.14,3.9,2.32,5.91,3.49l.8.46c7.11,4.17,16,9.11,23.75,11.56,6.74,2.13,37.73,16.89,61.3,29.11-.19.92-.38,1.86-.58,2.82-.54,2.62-1.11,5.4-1.72,8.31-15.47-1.77-37.75-4.61-65.18-8.3l-.44-.05c-.18,0-.35,0-.51-.06l-.19,0c-1-.15-1.9-.27-2.7-.37l-1.65-.22-.38,0c-.67-.11-1.16-.17-1.42-.2-11.58-1.56-20.3-2.77-22.76-3.12-2.17-.69-4.4-1.37-6.61-2a496.67,496.67,0,0,0-69.39-14.92c-40.07-5.56-46.55-.68-49.35,1.42-13,9.89-13.56,37-11.66,42.91.59,1.8,2,6,15,13.18A98,98,0,0,0,39.71,187c10.35,2.42,25.45,4.5,38.77,6.35,6.93,1,13.47,1.86,17.93,2.63l.51.09c1.46.25,3,.51,4.42.74,3.68.59,7.43,1.14,11.06,1.68,6,.89,14.16,2.1,16,2.72,3.31,1.23,8.36,1.49,18.56,1.93l6.06.27.26.06h.59l37,4.4a27.51,27.51,0,0,0-6.84,8.53c-4.29,8.71-3.72,19.52-2.49,27,1.3,8,4.6,19.35,9.69,24.75,3.9,4.07,12.44,9.17,18.62,12.58a37.68,37.68,0,0,0,.69,17.94c3.51,18.67,17.72,31.77,29.55,33.7,10.67,1.76,55-.95,64.27-1.55,1.21,0,8.41-.16,17.23-.2h.69c10.83,0,25.7.13,33.19.92,9.22,1,21.19.54,32.39-1.18l1.83-.28a77.14,77.14,0,0,0,11.57-2.66c6.49-2.16,13.64-9.38,23-19.35,1.58-1.69,3.56-3.78,5-5.24,16,3.8,87.18,24.69,131.8,38l5.85,1.75,3.45-5a193.52,193.52,0,0,0,11.29-19.4Z"/><path class="cls-4" d="M178.47,50.15c3.36,2.49,6.65,4.83,9.93,6.91C205.84,68.21,269.57,95.57,302,109.25c11.58,4.88,19.16,8,19.16,8s63.45,41.37,71.2,59.37c4.81,11.2-24.39,64.72-51,103.67-16.13,23.59-31.28,41.84-37.38,42.18,0,0-52.2,3.36-62.54,1.65s-29.21-18.92-21.71-47.6l-.18-.08c-2-1-17.55-9.11-22.3-14.07-2.73-2.89-6-11.19-7.47-20.28-1.27-7.78-1.18-16.09,1.73-22C196.35,210.3,213,205,220.63,203c2.08-.55,3.46-.86,3.79-.91-2.08-.26-45-5-59-6.24-3.56-.33-7.2-.54-10.77-.73a.38.38,0,0,0-.24,0,1,1,0,0,0-.21,0h-.17c-10.51-.53-19.93-.66-22.78-1.72-3.39-1.27-16.67-2.91-28.6-4.82-1.66-.26-3.27-.54-4.85-.81-12.87-2.23-40.71-5.27-56.21-8.89s-31.74-13.57-32.85-17-.6-26.54,8.77-33.65c8.88-6.68,69.08,2.26,111.29,14.84q3.68,1.06,7.13,2.18s9.69,1.36,23.61,3.23c0,0,.44.05,1.22.18.54.07,1.29.16,2.17.29s1.6.2,2.54.34c.41.07.82.11,1.26.16,34.93,4.71,87.56,11.54,91.79,10.43,6.37-1.68,10.79-8.5,7.55-13.35s-77.54-41.5-89.51-45.29c-6.75-2.14-15-6.65-22.82-11.25h0c-6.07-3.55-11.89-7.1-16.53-9.65-7.56-4.14-39.46-17.62-59-28.1a1.45,1.45,0,0,0-.22-.09.13.13,0,0,0-.09-.06l-.07,0a.22.22,0,0,0-.09-.06c-7.62-4.06-13.28-7.67-14.81-10-5.47-8.41-2.59-38.61,37.21-32.91C134.36,14,157.57,34.8,178.47,50.15Z"/><path class="cls-5" d="M247.53,121.09l81.36,17.27,19.78,113.89-7.31,28.06c-16.13,23.59-31.28,41.84-37.38,42.18,0,0-52.2,3.36-62.54,1.65L251,311.31l-15.71-1.07,13.05-5.84s10.12-3.12,11.29-5,8-33.39-8.38-40.13c0,0-24.49,10.27-31.49,17.3l-.18-.08c-2-1-17.55-9.11-22.3-14.07,0,0,23.72-6.36,35.06-8.08S248.06,209,239,200.38L220.63,203l-66.2-7.87a.38.38,0,0,1,.24,0c6.24,0,57.15.31,63.31-2.44,6.54-3,9.51-27.06,2.37-32.12-5.52-3.9-38.73-9-53.6-11.12,34.93,4.71,87.56,11.54,91.79,10.43,6.37-1.68,10.79-8.5,7.55-13.35s-77.54-41.5-89.51-45.29c-6.75-2.14-15-6.65-22.82-11.25Z"/><path class="cls-6" d="M178.47,50.15c3.36,2.49,6.65,4.83,9.93,6.91C205.84,68.21,269.57,95.57,302,109.25L286.92,186l-66.29,17c2.08-.55,3.46-.86,3.79-.91-2.08-.26-45-5-59-6.24-3.56-.33-7.2-.54-10.77-.73a.38.38,0,0,0-.24,0,1,1,0,0,0-.21,0h-.17c-10.51-.53-19.93-.66-22.78-1.72-3.39-1.27-16.67-2.91-28.6-4.82l-.43-.54s25.94.9,32.17-5.88,13.13-26.56-5.21-38.77c-.15-.11-.26-.21-.38-.31q3.68,1.06,7.13,2.18s9.69,1.36,23.61,3.23c0,0,.44.05,1.22.18.54.07,1.29.16,2.17.29s1.6.2,2.54.34c.41.07.82.11,1.26.16,34.93,4.71,87.56,11.54,91.79,10.43,6.37-1.68,10.79-8.5,7.55-13.35s-77.54-41.5-89.51-45.29c-6.75-2.14-15-6.65-22.82-11.25h0c-6.07-3.55-11.89-7.1-16.53-9.65-7.56-4.14-39.46-17.62-59-28.1,6.84,2.63,82.2,31.86,90.66,30.23C176.29,81,184.2,63.35,178.47,50.15Z"/><path class="cls-7" d="M581.69,230.91c-7-.86-18-2.26-30.84-4h0c-40.18-5.45-98.11-14.37-106.59-21.32-13.12-10.72-34.45-78.36-40.21-88.33l0,0C398.26,107.4,386.27,96,378.8,92.7c-2.49-1.1-8.29-.82-15.47,0-14.21,1.67-33.91,5.7-44.7,6.12-16.26.65-51.46-3-53.75-2.69S252,105.67,250,111.38s-5.06,22-10.42,47.66-15.31,45.27-15.24,50.38a5.46,5.46,0,0,0,1.63,3.31v0h0a0,0,0,0,1,0,0l.31.29c4,4.11,13.33,8,19.92,8.91,8.56,1.11,35.84-28.6,39.38-39.65s5.2-36.13,5.2-36.13S308.21,150.29,310,151c.76.3,3.64,12.44,7.69,28,0,.1.06.19.06.29,1,4,2.17,8.12,3.35,12.36,5.17,18.74,11.51,39,17.9,49.43,0,0-21.91,69.5-35.06,81.39,0,0,7.74-.16,17.55-.2l.07,0c11.91,0,26.81.14,34.74,1,10.05,1.08,22.51.18,32-1.4h0a69.93,69.93,0,0,0,10.28-2.35c8.23-2.74,25.17-24.6,28.43-25.54s136.47,38.9,136.47,38.9a204.82,204.82,0,0,0,18.19-34.78Z"/><path class="cls-6" d="M226,212.73l0,0h0Z"/><path class="cls-6" d="M339,241.1c-6.39-10.42-12.73-30.69-17.9-49.43,10,30.22,30.9,54.82,30.9,54.82,6.44,39,25.16,63.71,36.25,75.35-9.44,1.58-21.9,2.48-32,1.4-7.93-.83-22.83-1-34.74-1l-.07,0c-9.81,0-17.55.2-17.55.2C317.13,310.6,339,241.1,339,241.1Z"/><path class="cls-6" d="M321.14,191.67a114.26,114.26,0,0,1-3.35-12.36C318.83,183.27,320,187.43,321.14,191.67Z"/><path class="cls-6" d="M363.33,92.75C352.77,116.27,317,150.37,317,150.37a75.72,75.72,0,0,0,.72,28.65c-4.05-15.6-6.93-27.74-7.69-28-1.83-.69-19.18-4.75-19.18-4.75s-1.65,25.07-5.2,36.13S254.84,223.12,246.28,222c-6.59-.87-15.89-4.8-19.92-8.91,2.06,1.8,12.21,9.75,24.28,1.62,13.51-9.13,34.51-67.87,32.45-79.09s-18.21-39.45-18.21-39.45c2.29-.29,37.49,3.34,53.75,2.69C329.42,98.45,349.12,94.42,363.33,92.75Z"/><polygon class="cls-5" points="290.87 146.23 290.68 125.67 296.95 147.57 290.87 146.23"/><path class="cls-5" d="M290.86,146.23,310,151s-7.48,40.68,29,90.12c0,0-10.47,36.56-20.84,56.64l-19.48,9.05L251,311.31l-15.71-1.07,20.84-5.9s20.09-1.76,26.43-3.1,18.33-12.86,19.43-17.73S299,263.44,296.17,261s-45-1.79-45-1.79-23.81,10.8-31.49,17.3c0,0,16.59-18.29,21.38-20.71s44.76-3.81,50.29-9.69S297.17,224,295,219s-24.79-14.71-24.79-14.71,13.45-16.3,15.46-21.88S290.86,146.23,290.86,146.23Z"/><path class="cls-8" d="M225,206.19c-.9,3.16,11.64,8.85,16,4.17s11.63-39.56,6.73-49.49S234.92,171.33,225,206.19Z"/><path class="cls-9" d="M241.83,209.16s5.43-8.18,8-25.46-1.32-30-4.18-31.52-8.39,16.73-8.39,16.73,4.93-11.17,8.58-9.77S251.29,190.55,241.83,209.16Z"/><path class="cls-10" d="M226,202.24s8.24,4.49,17,4.57a12.28,12.28,0,0,1-2.44,4c-1.61,1.63-12.63,2.07-15.53-4.61Z"/><path class="cls-10" d="M237.27,168.91s1.28,3.55,3.78,3.54,6.47-10.21,6.47-10.21-.29-3.33-2.88-3.13S237.27,168.91,237.27,168.91Z"/><path class="cls-8" d="M294.58,262.46s7.46,3,6.62,19.47c0,.72-.89,1.28-2.29,1.65-4.36,1.22-13.74.7-19.3-2l-.61-.34a7.66,7.66,0,0,1-.9-.48c-.05-.05-.12-.07-.14-.11-4-2.79-4-10.24.94-14.82,2.7-2.53,6.89-4.18,12.71-3.75a.11.11,0,0,0,.11,0A24,24,0,0,1,294.58,262.46Z"/><path class="cls-8" d="M292,217.28a6.48,6.48,0,0,1,1.46,1.16c2.12,2.48,5.66,14.12-1.89,22.59a3.52,3.52,0,0,1-.68.59,9,9,0,0,1-5,1.09l-.1,0c-6.72-.1-16.95-3.85-22.57-8.69a12.5,12.5,0,0,1-3.73-5c-2.47-7.35,2.08-13.89,7.8-16.3a.58.58,0,0,1,.23-.08,12.79,12.79,0,0,1,3-.86,4.91,4.91,0,0,1,.79-.08C277.71,211.27,287.94,214.74,292,217.28Z"/><path class="cls-5" d="M267.32,212.71l2-.5c-5,2.18-12.59,11.37-6.19,19.18,6.8,8.27,20.48,10.93,22.7,11.29-8.89-.13-23.94-6.66-26.3-13.67C257.05,221.66,261.6,215.12,267.32,212.71Z"/><path class="cls-5" d="M271.38,211.69l-2.07.52a4.15,4.15,0,0,1,1.28-.44A4.91,4.91,0,0,1,271.38,211.69Z"/><path class="cls-5" d="M291.61,262.11c-2.68.18-14.77,1.42-13.88,12,1,11.71,20.5,9.52,21.18,9.45-4.77,1.32-15.62.64-20.81-2.79C271.75,276.61,275,260.85,291.61,262.11Z"/><path class="cls-10" d="M294.58,262.46s7.46,3,6.62,19.47c0,.72-.89,1.28-2.29,1.65C298.91,283.58,300.8,271.21,294.58,262.46Z"/><path class="cls-10" d="M292,217.28a6.48,6.48,0,0,1,1.46,1.16c2.12,2.48,5.66,14.12-1.89,22.59a3.52,3.52,0,0,1-.68.59C292.05,238.19,295.29,226.85,292,217.28Z"/><path class="cls-11" d="M270.2,204.24s16.29-15.68,19-21.85S292.35,149,310,151l-19.18-4.75s-2.28,27.33-5.2,36.13S270.2,204.24,270.2,204.24Z"/><path class="cls-11" d="M294.58,218.27s2.85,1.54,4.63,21.09,5.68,40.38,4.57,45.49-19.11,15.65-19.11,15.65,17.31-12.6,17.29-17S299,264.28,296.17,261s-32.56-1.86-32.56-1.86,16.92-4.44,24.73-11.22S298.77,224.32,294.58,218.27Z"/><path class="cls-11" d="M246.28,222s10.45-.33,28.17-15.87l2.58-9.91S264.38,213.87,246.28,222Z"/><path class="cls-12" d="M550.68,226.9c-5.36.33-119.25,6.1-129-14.55-9.85-20.84-17.6-92.87-17.62-95.09,5.76,10,27.09,77.61,40.21,88.33C452.71,212.54,510.51,221.42,550.68,226.9Z"/><path class="cls-12" d="M581.69,230.91c-7-.86-18-2.26-30.84-4h0c-40.18-5.45-98.11-14.37-106.59-21.32-13.12-10.72-34.45-78.36-40.21-88.33,0,0,14.72,106.63,9.64,144.86S398.6,319.5,398.6,319.5c8.23-2.74,25.17-24.6,28.43-25.54s136.47,38.9,136.47,38.9a204.82,204.82,0,0,0,18.19-34.78Z"/><path class="cls-5" d="M404,117.26c5.76,10,27.09,77.61,40.21,88.33l-22.59,6.76C411.79,191.51,404,119.48,404,117.26Z"/><path class="cls-13" d="M384.63,269.19c11.95,5.14,26-84.1,9.3-127.62-11.66-30.3-24.81-34.84-31.56-35.16s-36.74,28.76-40.08,55.64S350.42,254.51,384.63,269.19Z"/><path class="cls-14" d="M364,256.25s-42-24.92-54-105.27C310,151,304.38,228.06,364,256.25Z"/><path class="cls-15" d="M196,256.75s3.11-25.67-1.33-37A40.31,40.31,0,0,0,196,256.75Z"/><path class="cls-15" d="M226.22,307.88s3.47-19.77-6.49-31.34C219.73,276.54,211.5,295.41,226.22,307.88Z"/><path class="cls-15" d="M62.88,42s14-21.86,27-30.9c0,0-13.64-.59-20.85,7.21S62.88,42,62.88,42Z"/><path class="cls-16" d="M260.3,297.12a50.45,50.45,0,0,0,5.76-22.1c.38-12.92-13.2-15-13.2-15S266.11,269.63,260.3,297.12Z"/><path class="cls-16" d="M238,249.34s9.83-16.78,11.71-28a18,18,0,0,1-5.82,0S244.34,227.87,238,249.34Z"/><path class="cls-17" d="M265,299.9,291.44,293s-7.87,6.66-10,6.62S265,299.9,265,299.9Z"/><path class="cls-18" d="M401.39,149.83s1.1-23.67-2-29.15S385,96.47,377.3,94.3s-50.66,5.1-50.66,5.1,38.5-3.57,48.78,2.08S399,127.75,401.39,149.83Z"/><path class="cls-18" d="M576,301S563.86,322.74,558,326.09s-123.62-35.21-123.62-35.21,110.48,29.46,121.22,25.27S576,301,576,301Z"/><path class="cls-18" d="M319.18,317.28s50.17,5.83,67.26,2.56,32.85-24.45,32.85-24.45a78.74,78.74,0,0,1-38.38,18.73C357.43,318.21,319.18,317.28,319.18,317.28Z"/><path class="cls-18" d="M15.16,163.78s9.16,7.26,30.8,12,87.21,14.47,87.21,14.47S21.56,165.68,15.16,163.78Z"/><path class="cls-18" d="M96.86,12.89S153.26,34,178.29,56.3c0,0-20.6-22.27-45.28-34S96.86,12.89,96.86,12.89Z"/><path class="cls-18" d="M581.69,234.77c-33.86-2.92-127.54-19.92-127.54-19.92,49.93,17.94,112,20,127.54,20.17Z"/><path class="cls-18" d="M242.07,150.5s7.9-17.08,9-26.52-1.07-12.6-1.07-12.6Z"/><path class="cls-8" d="M264.88,96.18s.08,8.89-3.92,14.5-10.93.7-10.93.7S254.3,103.63,264.88,96.18Z"/><path class="cls-5" d="M246.28,222,242,218.64s-13.92-2.8-17.66-9.22C224.37,209.42,225.13,218.06,246.28,222Z"/></g></g></g></svg>