<svg xmlns="http://www.w3.org/2000/svg" viewBox="0 0 526.34 526.34"><defs><style>.cls-1{fill:#cecece;}.cls-2{fill:#fff;stroke:#fff;stroke-miterlimit:10;}</style></defs><g id="Layer_2" data-name="Layer 2"><g id="Layer_1-2" data-name="Layer 1"><rect class="cls-1" width="526.34" height="526.34"/><path class="cls-2" d="M96.45,147.24v74.07H59.11V58.56h56.64a43,43,0,0,1,14.9,2.3,25.77,25.77,0,0,1,9.75,6A25.79,25.79,0,0,1,146,76.8a57.59,57.59,0,0,1,2.68,12.36c.42,4.13.63,9.11.63,15q0,4.61-.16,7.51A46.41,46.41,0,0,1,148,119a25,25,0,0,1-2.78,7.4,22.39,22.39,0,0,1-5.4,5.83,26.11,26.11,0,0,1-8.76,4.39,19.76,19.76,0,0,1,8.49,3.42,14.19,14.19,0,0,1,4.83,6.18,33.41,33.41,0,0,1,2,6.8,42.35,42.35,0,0,1,.53,7q0,40.35-.42,61.29H110.4V157.87a18.93,18.93,0,0,0-.78-6,5.35,5.35,0,0,0-2.94-3.22,13.81,13.81,0,0,0-4.14-1.17Q100.54,147.24,96.45,147.24Zm.21-58.54v30.35h9.23q7.35,0,7.34-14.92,0-9.9-2.88-12.67T98.65,88.7Z"/><path class="cls-2" d="M161.49,177.38V99.84q0-20.32,11.27-31.52T206.7,56.83q23.28.3,34.56,11.49t11.28,31.52v77.54a59.74,59.74,0,0,1-2.57,18,42.61,42.61,0,0,1-7.82,14.45,33.76,33.76,0,0,1-14.21,9.81,53.07,53.07,0,0,1-20.61,3.17q-12.29.3-21.25-3.17a33.82,33.82,0,0,1-14.21-9.81,42.41,42.41,0,0,1-7.81-14.45A59.43,59.43,0,0,1,161.49,177.38ZM207,191a7.63,7.63,0,0,0,3.52-.77,5.71,5.71,0,0,0,2.41-2.34,22.41,22.41,0,0,0,1.42-3,15.78,15.78,0,0,0,.73-3.83c.14-1.6.23-2.83.26-3.68s.05-2,.05-3.52V107.6c0-.4,0-1.22.06-2.45s0-2.14,0-2.76-.07-1.51-.11-2.7a12.68,12.68,0,0,0-.31-2.76c-.18-.65-.39-1.47-.63-2.45a5.76,5.76,0,0,0-1-2.25c-.42-.51-.91-1.06-1.47-1.64a4.69,4.69,0,0,0-2.1-1.22A10.23,10.23,0,0,0,207,89a9.42,9.42,0,0,0-3.83.72A5.53,5.53,0,0,0,200.61,92c-.63,1.06-1.15,2-1.57,2.86a11.05,11.05,0,0,0-.84,3.78c-.14,1.67-.21,2.87-.21,3.58v70.34c0,1.5,0,2.69,0,3.58s.12,2.18.27,3.88a16.58,16.58,0,0,0,.78,4.14,25.76,25.76,0,0,0,1.52,3.32,6.26,6.26,0,0,0,2.57,2.6A8,8,0,0,0,207,191Z"/><path class="cls-2" d="M357.75,151.23V182q0,21.26-12.38,31.21t-34.62,10q-19.71,0-32.09-11T266.28,181v-75.5q0-24.21,11-36.22t34.35-12a64,64,0,0,1,17.63,2.3,45.5,45.5,0,0,1,14.31,6.79,31.08,31.08,0,0,1,9.81,11.8,37.81,37.81,0,0,1,3.57,16.81v28.7H320.4v-18.9q0-14.61-8.81-14.61c-3.5,0-5.8,1.08-6.92,3.22S303,98.48,303,102.29v76.93a15.79,15.79,0,0,0,2.36,8.69,7.13,7.13,0,0,0,6.24,3.67,8.35,8.35,0,0,0,6.19-2.7q2.63-2.72,2.62-9.66v-28Z"/><path class="cls-2" d="M426.45,58.56h37.14L442.92,133l25,88.27H429.6l-20.14-78.87v78.87H372.75V58.56h36.5v65.08Z"/><path class="cls-2" d="M59.11,370.47V231.53h41.64a44.75,44.75,0,0,1,14.41,2.1,28.16,28.16,0,0,1,10.93,6.8q4.74,4.71,7.21,13a72,72,0,0,1,2.46,20.19,88.78,88.78,0,0,1-1.48,17.48,38.11,38.11,0,0,1-5.06,13,21.91,21.91,0,0,1-10.16,8.5q-6.59,2.83-16.16,2.83H90.09v55Zm31-113.64V290.4h1.79c1.67,0,2.94,0,3.81-.13a18.09,18.09,0,0,0,3-.61,4.75,4.75,0,0,0,2.6-1.57,16,16,0,0,0,1.75-3,15.27,15.27,0,0,0,1.2-4.84,69,69,0,0,0,.32-7.16q0-9.15-2.46-12.73t-8.56-3.57Z"/><path class="cls-2" d="M202.29,231.53l15.76,138.94H187.61l-2.24-20.93H169.43l-2,20.93H136.84L153,231.53Zm-23.55,26.08h-2.86l-4.21,66.63H183Z"/><path class="cls-2" d="M227.73,370.47V231.53h41.63a44.82,44.82,0,0,1,14.42,2.1,28.16,28.16,0,0,1,10.93,6.8q4.74,4.71,7.2,13a71.58,71.58,0,0,1,2.47,20.19,89.55,89.55,0,0,1-1.48,17.48,38.31,38.31,0,0,1-5.06,13,22,22,0,0,1-10.16,8.5q-6.58,2.83-16.17,2.83h-12.8v55Zm31-113.64V290.4h1.79c1.67,0,2.94,0,3.8-.13a18.18,18.18,0,0,0,3.05-.61,4.79,4.79,0,0,0,2.6-1.57,16.65,16.65,0,0,0,1.74-3,15,15,0,0,0,1.21-4.84,69.35,69.35,0,0,0,.31-7.16q0-9.15-2.46-12.73t-8.55-3.57Z"/><path class="cls-2" d="M313.69,370.47V231.53h63v27h-31v27.13h29.73v26.07H345.75v31.66h33v27.13Z"/><path class="cls-2" d="M422.76,307.24v63.23H390.88V231.53h48.35a36.56,36.56,0,0,1,12.72,2,21.77,21.77,0,0,1,8.33,5.14,22.1,22.1,0,0,1,4.79,8.46,49.94,49.94,0,0,1,2.28,10.55q.54,5.28.54,12.78c0,2.62-.05,4.75-.14,6.41a39.18,39.18,0,0,1-1,6.28,21.4,21.4,0,0,1-2.37,6.32,19.2,19.2,0,0,1-4.62,5,22.4,22.4,0,0,1-7.47,3.75,16.85,16.85,0,0,1,7.25,2.92,12.11,12.11,0,0,1,4.12,5.27,29.27,29.27,0,0,1,1.7,5.8,36.14,36.14,0,0,1,.45,6q0,34.46-.36,52.33h-30.8V316.31a16,16,0,0,0-.68-5.15,4.54,4.54,0,0,0-2.5-2.75,11.72,11.72,0,0,0-3.54-1C426.82,307.29,425.08,307.24,422.76,307.24Zm.18-50v25.91h7.88q6.26,0,6.26-12.74,0-8.46-2.46-10.81t-10-2.36Z"/><path class="cls-2" d="M84.81,469.51q-13.87,0-19.79-6.17t-5.91-19.08v-8.6h19.7v7.88q0,8.49,4.75,8.49a4.17,4.17,0,0,0,3.49-1.65A7,7,0,0,0,88.32,446a15.79,15.79,0,0,0-1-5.95,15.45,15.45,0,0,0-3-4.61,77.69,77.69,0,0,0-6.6-6l-8.43-7.12Q59.11,413.78,59.11,403q0-11.7,6.14-17.4t16.9-5.71h3.51a27.17,27.17,0,0,1,7.13,1.25,20.35,20.35,0,0,1,7.76,4.13,17.44,17.44,0,0,1,5.09,8,40.72,40.72,0,0,1,1.7,12.6H87.13L87,400.65a3.77,3.77,0,0,0-1.3-2.65,4,4,0,0,0-2.78-1.16A5,5,0,0,0,79.57,398a3.85,3.85,0,0,0-1.38,3.06q0,3.75,5.6,8.16l12.06,9.48a42.24,42.24,0,0,1,5.12,4.71,24.59,24.59,0,0,1,3.45,4.75,46.13,46.13,0,0,1,2.07,4.24,16.79,16.79,0,0,1,1.11,4.14q.3,2.24.36,3.36c0,.75.06,1.74.06,2.95a52.55,52.55,0,0,1-.62,8.41,29.57,29.57,0,0,1-2.21,7.28,17.73,17.73,0,0,1-4.16,5.84,18.69,18.69,0,0,1-6.68,3.72A30,30,0,0,1,84.81,469.51Z"/><path class="cls-2" d="M163.27,430.7v16.59q0,11.47-6.68,16.84t-18.68,5.38q-10.65,0-17.32-5.93t-6.68-16.84V406q0-13.07,5.91-19.54T138.36,380a34.47,34.47,0,0,1,9.51,1.24,24.66,24.66,0,0,1,7.73,3.67,16.77,16.77,0,0,1,5.29,6.37,20.3,20.3,0,0,1,1.93,9.07v15.49h-19.7v-10.2q0-7.89-4.76-7.89c-1.89,0-3.13.58-3.73,1.74a10.5,10.5,0,0,0-.91,4.82V445.8a8.49,8.49,0,0,0,1.27,4.69,3.87,3.87,0,0,0,3.37,2A4.48,4.48,0,0,0,141.7,451c.94-1,1.42-2.71,1.42-5.21V430.7Z"/><path class="cls-2" d="M171.37,468.52V380.69h19.24v87.83Z"/><path class="cls-2" d="M224,469.51q-13.87,0-19.79-6.17t-5.91-19.08v-8.6H218v7.88q0,8.49,4.75,8.49a4.16,4.16,0,0,0,3.48-1.65,7,7,0,0,0,1.28-4.36,14.09,14.09,0,0,0-4-10.56,77.69,77.69,0,0,0-6.6-6l-8.43-7.12q-10.2-8.54-10.19-19.29,0-11.7,6.14-17.4t16.9-5.71h3.51a27.3,27.3,0,0,1,7.13,1.25,20.31,20.31,0,0,1,7.75,4.13,17.38,17.38,0,0,1,5.1,8,40.72,40.72,0,0,1,1.7,12.6H226.28l-.12-5.29a3.69,3.69,0,0,0-1.3-2.65,4,4,0,0,0-2.77-1.16,5,5,0,0,0-3.37,1.19,3.83,3.83,0,0,0-1.39,3.06q0,3.75,5.61,8.16L235,418.73a42.24,42.24,0,0,1,5.12,4.71,24.59,24.59,0,0,1,3.45,4.75,46.13,46.13,0,0,1,2.07,4.24,16.78,16.78,0,0,1,1.1,4.14c.21,1.49.33,2.61.37,3.36s.06,1.74.06,2.95a51.35,51.35,0,0,1-.63,8.41,29.13,29.13,0,0,1-2.2,7.28,17.73,17.73,0,0,1-4.16,5.84,18.65,18.65,0,0,1-6.69,3.72A29.87,29.87,0,0,1,224,469.51Z"/><path class="cls-2" d="M277.79,469.51q-13.86,0-19.78-6.17t-5.92-19.08v-8.6h19.7v7.88q0,8.49,4.76,8.49a4.16,4.16,0,0,0,3.48-1.65A7,7,0,0,0,281.3,446a15.79,15.79,0,0,0-1-5.95,15.45,15.45,0,0,0-3-4.61,78.81,78.81,0,0,0-6.59-6l-8.44-7.12Q252.1,413.78,252.09,403q0-11.7,6.14-17.4t16.9-5.71h3.51a27.17,27.17,0,0,1,7.13,1.25,20.28,20.28,0,0,1,7.76,4.13,17.44,17.44,0,0,1,5.09,8,40.42,40.42,0,0,1,1.7,12.6H280.11l-.11-5.29a3.73,3.73,0,0,0-1.3-2.65,4,4,0,0,0-2.78-1.16,5,5,0,0,0-3.36,1.19,3.83,3.83,0,0,0-1.39,3.06q0,3.75,5.6,8.16l12.06,9.48a42.24,42.24,0,0,1,5.12,4.71,24.25,24.25,0,0,1,3.46,4.75,45.82,45.82,0,0,1,2.06,4.24,16.79,16.79,0,0,1,1.11,4.14c.2,1.49.33,2.61.37,3.36s.05,1.74.05,2.95a52.55,52.55,0,0,1-.62,8.41,29.15,29.15,0,0,1-2.21,7.28,17.58,17.58,0,0,1-4.16,5.84,18.6,18.6,0,0,1-6.68,3.72A30,30,0,0,1,277.79,469.51Z"/><path class="cls-2" d="M307,444.81V403q0-11,6.08-17t18.32-6.2q12.56.17,18.65,6.2t6.08,17v41.85a32.26,32.26,0,0,1-1.38,9.73,23,23,0,0,1-4.22,7.8,18.28,18.28,0,0,1-7.67,5.3,28.58,28.58,0,0,1-11.13,1.71,29.63,29.63,0,0,1-11.46-1.71,18.28,18.28,0,0,1-7.67-5.3,23,23,0,0,1-4.22-7.8A32.26,32.26,0,0,1,307,444.81Zm24.57,7.33a4.11,4.11,0,0,0,1.89-.41,3.06,3.06,0,0,0,1.3-1.27,11.26,11.26,0,0,0,.77-1.63,7.94,7.94,0,0,0,.39-2.06c.08-.87.13-1.53.15-2s0-1.09,0-1.9V407.15q0-.33,0-1.32c0-.66,0-1.16,0-1.49s0-.82-.05-1.46a7.2,7.2,0,0,0-.17-1.49c-.1-.35-.21-.79-.34-1.32a3.32,3.32,0,0,0-.54-1.22c-.23-.27-.49-.57-.79-.88a2.55,2.55,0,0,0-1.14-.66,5.5,5.5,0,0,0-1.52-.19,5.2,5.2,0,0,0-2.07.38,3,3,0,0,0-1.39,1.24c-.34.57-.62,1.09-.85,1.55a6,6,0,0,0-.45,2c-.08.9-.11,1.54-.11,1.93v38c0,.81,0,1.45,0,1.93s.07,1.18.15,2.09a8.51,8.51,0,0,0,.42,2.24,13.86,13.86,0,0,0,.82,1.79,3.35,3.35,0,0,0,1.39,1.4A4.22,4.22,0,0,0,331.52,452.14Z"/><path class="cls-2" d="M384.9,428.54v40H364.75V380.69h30.57a23,23,0,0,1,8,1.24,13.7,13.7,0,0,1,5.27,3.25,14.07,14.07,0,0,1,3,5.35,31.84,31.84,0,0,1,1.44,6.67,80.4,80.4,0,0,1,.34,8.08q0,2.48-.09,4.05a24.05,24.05,0,0,1-.62,4,13.59,13.59,0,0,1-1.5,4,12.14,12.14,0,0,1-2.91,3.14,14,14,0,0,1-4.73,2.37,10.74,10.74,0,0,1,4.59,1.85,7.71,7.71,0,0,1,2.6,3.33,17.56,17.56,0,0,1,1.07,3.67,22.7,22.7,0,0,1,.29,3.78q0,21.78-.23,33.08H392.43V434.28A9.9,9.9,0,0,0,392,431a2.87,2.87,0,0,0-1.58-1.74,7.47,7.47,0,0,0-2.24-.64C387.46,428.58,386.37,428.54,384.9,428.54ZM385,397v16.38h5q4,0,4-8.05,0-5.36-1.56-6.84T386.09,397Z"/><path class="cls-2" d="M444.68,469.51q-13.87,0-19.79-6.17T419,444.26v-8.6h19.7v7.88q0,8.49,4.75,8.49a4.15,4.15,0,0,0,3.48-1.65,7,7,0,0,0,1.28-4.36,15.79,15.79,0,0,0-1-5.95,15.45,15.45,0,0,0-3-4.61,77.69,77.69,0,0,0-6.6-6l-8.43-7.12Q419,413.78,419,403q0-11.7,6.14-17.4t16.9-5.71h3.51a27.23,27.23,0,0,1,7.13,1.25,20.35,20.35,0,0,1,7.76,4.13,17.44,17.44,0,0,1,5.09,8,40.72,40.72,0,0,1,1.7,12.6H447l-.11-5.29a3.74,3.74,0,0,0-1.31-2.65,4,4,0,0,0-2.77-1.16,5,5,0,0,0-3.37,1.19,3.85,3.85,0,0,0-1.38,3.06q0,3.75,5.6,8.16l12.06,9.48a42.24,42.24,0,0,1,5.12,4.71,24.59,24.59,0,0,1,3.45,4.75,46.13,46.13,0,0,1,2.07,4.24,16.35,16.35,0,0,1,1.1,4.14c.21,1.49.33,2.61.37,3.36s.06,1.74.06,2.95a52.55,52.55,0,0,1-.62,8.41,29.57,29.57,0,0,1-2.21,7.28,17.73,17.73,0,0,1-4.16,5.84,18.69,18.69,0,0,1-6.68,3.72A30,30,0,0,1,444.68,469.51Z"/></g></g></svg>